<svg viewBox="0 0 65 65" xmlns="http://www.w3.org/2000/svg" xmlns:xlink="http://www.w3.org/1999/xlink"><g id="Simple-Design" stroke="none" stroke-width="1" fill="none" fill-rule="evenodd"><g id="Login---Full-Scale" transform="translate(-1016.000000, -230.000000)" fill="#0066FF" fill-rule="nonzero"><g id="Group-2" transform="translate(749.000000, 230.000000)"><path d="M327.824411,15.9027778 C325.040685,10.9722222 321.143469,7.08333333 316.202355,4.23611111 C311.261242,1.38888889 305.69379,0 299.5,0 C293.30621,0 287.738758,1.38888889 282.797645,4.23611111 C277.856531,7.08333333 273.959315,10.9722222 271.175589,15.9027778 C268.391863,20.8333333 267,26.3888889 267,32.5 C267,38.6111111 268.391863,44.0972222 271.175589,49.0972222 C273.959315,54.0277778 277.856531,57.9166667 282.797645,60.7638889 C287.738758,63.6111111 293.30621,65 299.5,65 C305.69379,65 311.261242,63.6111111 316.202355,60.7638889 C321.143469,57.9166667 325.040685,54.0277778 327.824411,49.0972222 C330.608137,44.1666667 332,38.6111111 332,32.5 C332,26.3888889 330.608137,20.9027778 327.824411,15.9027778 Z M287,19 C287,17.3333333 288.126761,16 289.535211,16 L309.464789,16 C310.873239,16 312,17.3333333 312,19 L287,19 L287,19 Z M316,41.0735695 C316,44.3433243 313.28481,47 309.943038,47 L289.056962,47 C285.71519,47 283,44.3433243 283,41.0735695 L283,27.9264305 C283,24.6566757 285.71519,22 289.056962,22 L309.943038,22 C313.28481,22 316,24.6566757 316,27.9264305 L316,41.0735695 Z" id="Shape"></path></g></g></g></svg>