<svg viewBox="0 0 250 42" xmlns="http://www.w3.org/2000/svg" xmlns:xlink="http://www.w3.org/1999/xlink"><g id="Simple-Design" stroke="none" stroke-width="1" fill="none" fill-rule="evenodd"><g id="Login---Full-Scale" transform="translate(-924.000000, -317.000000)" fill="#000" fill-rule="nonzero"><g id="Group-2" transform="translate(749.000000, 230.000000)"><g id="Lunchbox_Blue" transform="translate(175.000000, 87.000000)"><polygon id="Path" points="0.545313819 1.99766837 7.17275466 1.99766837 7.17275466 35.4886223 26.8611033 35.4886223 26.8611033 41.4713526 0.545313819 41.4713526"></polygon><path d="M33.2998509,38.460878 C31.4205778,36.4435497 30.44962,33.5572184 30.44962,29.7708483 L30.44962,12.7632186 L36.745185,12.7632186 L36.745185,28.436308 C36.745185,30.8881378 37.2463245,32.6882154 38.2799247,33.8675766 C39.3135249,35.0159019 40.8795858,35.6055825 42.9781074,35.6055825 C45.0139866,35.6055825 46.5487263,34.9538303 47.644969,33.6503258 C48.7412116,32.3468214 49.2736723,30.6088154 49.2736723,28.4673438 L49.2736723,12.7632186 L55.5692373,12.7632186 L55.5692373,41.1299586 L49.2736723,41.1299586 L49.2736723,37.9022332 C48.5219631,38.8953795 47.4570417,39.7333466 46.1102293,40.4161347 C44.7634169,41.1299586 43.197356,41.4713526 41.4120465,41.4713526 C37.90407,41.4713526 35.179124,40.4782063 33.2998509,38.460878 Z" id="Path"></path><path d="M62.7462708,13.104244 L69.0261751,13.104244 L69.0261751,16.3284836 C69.7760144,15.3364099 70.8382868,14.4993477 72.1817489,13.817297 C73.525211,13.104244 75.0873762,12.7632186 76.8682446,12.7632186 C80.3987381,12.7632186 83.1169056,13.7552924 85.0227472,15.7704422 C86.8973455,17.7855919 87.865888,20.6688063 87.865888,24.4510874 L87.865888,41.4713526 L81.5859837,41.4713526 L81.5859837,25.7841865 C81.5859837,23.3350045 81.0860908,21.5368708 80.086305,20.3587832 C79.0865193,19.211698 77.5868406,18.6226542 75.5872691,18.6226542 C73.4939677,18.6226542 71.8693158,19.2737026 70.7445568,20.5757993 C69.6197979,21.8778961 69.0574184,23.6140252 69.0574184,25.7531842 L69.0574184,41.409348 L62.7462708,41.409348 L62.7462708,13.104244 Z" id="Path"></path><path d="M99.9505575,39.5224608 C97.677318,38.21255 95.9163577,36.4234035 94.6036419,34.1869703 C93.2909261,31.9185881 92.650577,29.3626645 92.650577,26.5191995 C92.650577,23.6757345 93.2909261,21.1198109 94.6036419,18.8514286 C95.9163577,16.5830464 97.7093354,14.825849 99.9505575,13.5159381 C102.223797,12.2060273 104.785194,11.5670464 107.634748,11.5670464 C111.89307,11.5670464 115.447007,13.0367024 118.360596,16.0079636 L113.622012,20.2571866 C111.989122,18.4999892 110.004039,17.6373649 107.634748,17.6373649 C105.137386,17.6373649 103.120286,18.4680401 101.55143,20.0974414 C99.982575,21.7268427 99.214156,23.8674287 99.214156,26.5191995 C99.214156,29.1709702 99.982575,31.3115562 101.55143,32.9409575 C103.120286,34.5703588 105.137386,35.401034 107.634748,35.401034 C110.132109,35.401034 112.181227,34.5703588 113.750082,32.9090085 C115.318938,31.2476582 116.119374,29.1070721 116.119374,26.5191995 L122.554883,26.5191995 C122.554883,29.3307154 121.914534,31.85469 120.601818,34.1550213 C119.289102,36.4234035 117.496125,38.21255 115.254903,39.5224608 C113.013681,40.8323717 110.452284,41.4713526 107.634748,41.4713526 C104.785194,41.4713526 102.223797,40.8323717 99.9505575,39.5224608 Z" id="Path"></path><path d="M127.339572,1.4881706 L133.837697,0.801496126 L133.837697,16.1580344 C134.775238,15.0655977 135.97141,14.1916484 137.426214,13.5361864 C138.848689,12.8807244 140.497467,12.5685996 142.30789,12.5685996 C145.864078,12.5685996 148.64437,13.5986114 150.648767,15.6274223 C152.653163,17.6562333 153.655362,20.5589935 153.655362,24.3357032 L153.655362,41.4713526 L147.157237,41.4713526 L147.157237,25.6778396 C147.157237,23.3993289 146.639973,21.6202177 145.573117,20.3717187 C144.50626,19.1232196 142.889811,18.4989701 140.72377,18.4989701 C138.622386,18.4989701 136.973608,19.1856446 135.712778,20.5277811 C134.484277,21.8699175 133.837697,23.5866037 133.837697,25.6778396 L133.837697,41.4401401 L127.339572,41.4401401 L127.339572,1.4881706 L127.339572,1.4881706 Z" id="Path"></path><path d="M168.320123,40.5125955 C166.921999,39.9249702 165.710292,39.1208514 164.685002,38.1311667 L164.685002,41.0692932 L158.440051,41.0692932 L158.440051,1.48190437 L164.685002,0.801496126 L164.685002,15.7395499 C165.586015,14.7498651 166.797722,13.976674 168.257984,13.358121 C169.749316,12.7704957 171.333855,12.4612192 173.042673,12.4612192 C175.83892,12.4612192 178.293403,13.0488445 180.437192,14.2550228 C182.549912,15.4302734 184.196591,17.131294 185.377228,19.327157 C186.557866,21.5230199 187.148185,24.059087 187.148185,26.9662859 C187.148185,29.8734848 186.557866,32.4095519 185.377228,34.6054148 C184.196591,36.8012778 182.549912,38.4713708 180.437192,39.677549 C178.324472,40.8527996 175.83892,41.4713526 173.042673,41.4713526 C171.302786,41.4094973 169.718246,41.1002208 168.320123,40.5125955 Z M178.728375,32.9971772 C180.250776,31.3889395 180.996442,29.3786424 180.996442,26.9044306 C180.996442,24.4302188 180.250776,22.4199217 178.728375,20.8116841 C177.205974,19.2034464 175.217532,18.3993276 172.763048,18.3993276 C170.339634,18.3993276 168.382262,19.2034464 166.859861,20.8116841 C165.337459,22.4199217 164.591794,24.4302188 164.591794,26.9044306 C164.591794,29.3786424 165.337459,31.3889395 166.859861,32.9971772 C168.382262,34.6054148 170.339634,35.4095337 172.763048,35.4095337 C175.217532,35.4095337 177.205974,34.6054148 178.728375,32.9971772 Z" id="Shape"></path><polygon id="Path" points="231.477853 24.4789013 223.936423 12.7632186 231.351106 12.7632186 234.995075 18.7309926 238.639043 12.7632186 246.053727 12.7632186 238.512296 24.4789013 249.349142 41.4713526 241.934458 41.4713526 234.995075 30.22681 228.055691 41.4713526 220.641008 41.4713526"></polygon><path d="M218.71996,18.8833777 C217.439262,16.6149955 215.646284,14.825849 213.373045,13.5159381 C211.099805,12.2060273 208.538408,11.5670464 205.688854,11.5670464 C202.839301,11.5670464 200.277904,12.2060273 198.004664,13.5159381 C195.731425,14.825849 193.938447,16.6149955 192.657749,18.8833777 C191.377051,21.1517599 190.736701,23.7076835 190.736701,26.5191995 C190.736701,29.3307154 191.377051,31.85469 192.657749,34.1550213 C193.938447,36.4234035 195.731425,38.21255 198.004664,39.5224608 C200.277904,40.8323717 202.839301,41.4713526 205.688854,41.4713526 C208.538408,41.4713526 211.099805,40.8323717 213.373045,39.5224608 C215.646284,38.21255 217.439262,36.4234035 218.71996,34.1550213 C220.000658,31.8866391 220.641008,29.3307154 220.641008,26.5191995 C220.641008,23.7076835 220.000658,21.1837089 218.71996,18.8833777 Z M199.989747,20.544728 C199.989747,19.9057471 200.502026,19.3945624 201.142375,19.3945624 L210.203316,19.3945624 C210.843665,19.3945624 211.355945,19.9057471 211.355945,20.544728 L199.989747,20.544728 L199.989747,20.544728 Z M213.244975,30.7045244 C213.244975,32.2380785 211.996294,33.4840913 210.459456,33.4840913 L200.854218,33.4840913 C199.31738,33.4840913 198.068699,32.2380785 198.068699,30.7045244 L198.068699,24.5383587 C198.068699,23.0048045 199.31738,21.7587918 200.854218,21.7587918 L210.459456,21.7587918 C211.996294,21.7587918 213.244975,23.0048045 213.244975,24.5383587 L213.244975,30.7045244 Z" id="Shape"></path></g></g></g></g></svg>